<?xml version="1.0" encoding="utf-8"?>
<svg height="555" viewBox="0 0 2062 555" width="2062" xmlns="http://www.w3.org/2000/svg">
<g data-name="Group 30" id="Group_30" transform="translate(4813 11310)">
<rect data-name="Rectangle 36" fill="#fff" height="555" id="Rectangle_36" transform="translate(-4813 -11310)" width="2062"/>
<g data-name="Group 29" id="Group_29" transform="translate(563 -149)">
<text fill="#8986C4" font-family="RobotoCondensed-Bold, Roboto" font-size="392" font-weight="700" id="Inventory" transform="translate(-4588 -10731)"><tspan x="0" y="0">CRUD</tspan></text>
<g data-name="Group 28" id="Group_28">
<rect data-name="Rectangle 35" fill="#cb0c9f" height="385" id="Rectangle_35" rx="68" transform="translate(-5177 -11053)" width="553"/>
<g data-name="Group 28" id="Group_28-2" transform="translate(-6181.052 -7815.903)">
<path d="M290.179,41.962H243.1a5.061,5.061,0,0,0-3.577,8.642l14.628,14.628-85.375,85.375-29.9-29.9-8.011-8.011a6.941,6.941,0,0,0-9.816,0L70.085,163.66a6.941,6.941,0,0,0,0,9.816l8.011,8.011a6.941,6.941,0,0,0,9.816,0l38.04-38.04L163.8,181.295a6.941,6.941,0,0,0,9.816,0l4.077-4.077a6.7,6.7,0,0,0,.625-.51l93.655-93.655L286.6,97.681a5.062,5.062,0,0,0,8.642-3.577V47.02a5.068,5.068,0,0,0-5.063-5.058Z" data-name="Path 36" fill="#fff" id="Path_36" transform="translate(1081 -3200.059)"/>
<path d="M152.616,108.32V233.152a6.938,6.938,0,0,0,6.941,6.941h22.167a6.938,6.938,0,0,0,6.941-6.941V72.266Z" data-name="Path 37" fill="#fff" id="Path_37" transform="translate(1162.098 -3170.996)"/>
<path d="M128.761,132.175v78.1a6.938,6.938,0,0,0,6.941,6.941h22.167a6.938,6.938,0,0,0,6.941-6.941V96.121Z" data-name="Path 38" fill="#fff" id="Path_38" transform="translate(1139.221 -3148.118)"/>
<path d="M133.364,130.142a18.187,18.187,0,0,1-12.943-5.361L104.91,109.27v88.393a6.938,6.938,0,0,0,6.941,6.941h22.167a6.938,6.938,0,0,0,6.941-6.941V128.48A18.235,18.235,0,0,1,133.364,130.142Z" data-name="Path 39" fill="#fff" id="Path_39" transform="translate(1116.347 -3135.508)"/>
<path d="M113.48,101.969l-30.008,30a18.732,18.732,0,0,1-2.42,2.019v70.676a6.938,6.938,0,0,0,6.941,6.941H110.16a6.938,6.938,0,0,0,6.941-6.941V105.6Z" data-name="Path 40" fill="#fff" id="Path_40" transform="translate(1093.467 -3142.51)"/>
</g>
</g>
</g>
</g>
</svg>